<?xml version="1.0" encoding="UTF-8"?>
<svg id="Layer_1" data-name="Layer 1" xmlns="http://www.w3.org/2000/svg" viewBox="0 0 164.1 164.1">
  <defs>
    <style>
      .cls-1 {
        fill: #383637;
      }

      .cls-1, .cls-2 {
        stroke-width: 0px;
      }

      .cls-2 {
        fill: #f1f1f2;
      }
    </style>
  </defs>
  <g id="isotip">
    <path id="S" class="cls-2" d="M12.1,104.55c12.76,16.58,32.34,29,53.48,30.96,9.61,1.31,38.1-.46,25.26-15.63-11.98-11.99-29.83-19.62-46.75-20.3-4,.21-9.88.84-10.63,5.03.63,4.34,5.57,7.08,9.33,9.38,6.01,3.35,12.67,5.8,19.38,7.94,12.93,4.35,27.36,7.02,40.81,3.68,40.26-9.71,28.97-54.88-11.01-46.13-3.18.55-7.66,1.37-10.8,1.64-14.45,1.71-33.57.27-42.38-13.31-7.95-14.78,1.79-33.23,15.53-40.44,6.84-3.73,14.74-5.05,22.25-4.48,16.25.86,45.01,15.06,49.27,31.76,1.22,5.47-3.02,8.94-8.18,7.04-12.03-5-19.61-16.65-26.96-26.77-13.73-19.14-12.6-31.57,12.38-17.31,18.6,10.96,35.53,24.68,50.19,40.53.75.86-.52,2.05-1.32,1.2-9.66-10.44-20.65-19.67-32.14-28.06-13.72-9.94-52.32-34.43-26.77,2.04,7.14,9.57,14.25,20.75,25.5,25.6,3.24,1.14,5.18-.3,4.43-3.74-4.36-15.78-31.77-26.01-46.7-27.09-6.74-.35-13.49.99-19.19,4.25-10.7,5.72-18.82,21.06-12.57,32.13,8.2,10.79,23.3,11.31,35.97,10.07,13.88-2,31.33-6.19,43.75,4.45,13.33,10.6,13.81,31.67.49,42.33-17.92,15.39-43.31,12.51-64.01,5.17-9.27-2.83-42.58-15.05-28.17-28.15,15.98-10.42,55.92,8.63,63.32,24.73,2.98,6.5-2.97,11.51-8.79,12.9-14.18,3.83-29.31,1.58-42.68-3.91-6.68-2.81-12.96-6.52-18.71-10.92-5.77-4.4-11.04-9.33-15.65-15.1-.44-.55-.35-1.35.2-1.79.59-.47,1.45-.32,1.87.3h0Z"/>
    <rect class="cls-1" x="29.87" y="85.46" width="7.08" height="90.67" rx="2.77" ry="2.77" transform="translate(-82.7 61.94) rotate(-45)"/>
    <rect class="cls-1" x="127.14" y="-11.71" width="7.08" height="90.67" rx="2.77" ry="2.77" transform="translate(14.5 102.26) rotate(-45)"/>
  </g>
</svg>