<?xml version="1.0" encoding="UTF-8"?>
<svg id="Layer_1" data-name="Layer 1" xmlns="http://www.w3.org/2000/svg" viewBox="0 0 164.1 164.1">
  <defs>
    <style>
      .cls-1 {
        fill: #f1f1f2;
      }

      .cls-1, .cls-2 {
        stroke-width: 0px;
      }

      .cls-2 {
        fill: #f0eef0;
      }
    </style>
  </defs>
  <g id="isotip">
    <path id="S" class="cls-1" d="M12.01,104.4c12.77,16.59,32.36,29.01,53.51,30.98,9.61,1.31,38.12-.46,25.28-15.64-11.99-12-29.85-19.63-46.78-20.31-4.01.21-9.88.84-10.63,5.03.63,4.34,5.57,7.08,9.34,9.39,6.01,3.35,12.67,5.8,19.39,7.95,12.93,4.36,27.37,7.02,40.83,3.68,40.28-9.71,28.98-54.91-11.02-46.15-3.18.55-7.67,1.37-10.8,1.65-14.46,1.71-33.59.27-42.4-13.32-7.95-14.79,1.79-33.25,15.54-40.46,6.85-3.73,14.75-5.05,22.26-4.49,16.26.86,45.04,15.07,49.3,31.77,1.22,5.47-3.02,8.95-8.18,7.04-12.04-5-19.62-16.66-26.98-26.78-13.74-19.15-12.61-31.59,12.38-17.32,18.61,10.97,35.55,24.69,50.22,40.55.75.86-.52,2.05-1.32,1.2-9.66-10.45-20.66-19.68-32.16-28.08-13.73-9.94-52.35-34.45-26.79,2.04,7.14,9.57,14.26,20.76,25.51,25.62,3.24,1.14,5.18-.3,4.43-3.74-4.36-15.79-31.79-26.03-46.73-27.11-6.74-.35-13.5.99-19.2,4.26-10.7,5.73-18.83,21.08-12.58,32.15,8.2,10.8,23.32,11.31,35.99,10.08,13.89-2,31.35-6.19,43.78,4.45,13.34,10.6,13.82,31.69.49,42.35-17.93,15.4-43.33,12.52-64.04,5.17-9.27-2.84-42.61-15.06-28.18-28.17,15.99-10.43,55.95,8.64,63.36,24.75,2.98,6.51-2.97,11.52-8.8,12.91-14.19,3.83-29.33,1.58-42.71-3.91-6.69-2.81-12.97-6.53-18.72-10.93-5.77-4.4-11.05-9.34-15.66-15.1-.44-.55-.35-1.35.2-1.79.59-.47,1.45-.32,1.87.3h0Z"/>
    <rect class="cls-2" x="29.89" y="85.3" width="7.09" height="90.72" rx="2.77" ry="2.77" transform="translate(-82.6 61.91) rotate(-45)"/>
    <rect class="cls-2" x="127.12" y="-11.93" width="7.09" height="90.72" rx="2.77" ry="2.77" transform="translate(14.63 102.19) rotate(-45)"/>
  </g>
</svg>