<?xml version="1.0" encoding="UTF-8"?>
<svg id="Layer_1" data-name="Layer 1" xmlns="http://www.w3.org/2000/svg" viewBox="0 0 164.1 164.1">
  <defs>
    <style>
      .cls-1 {
        fill: #383637;
        stroke-width: 0px;
      }
    </style>
  </defs>
  <g id="isotip">
    <path id="S" class="cls-1" d="M12.05,104.37c12.76,16.59,32.36,29.01,53.5,30.97,9.61,1.31,38.12-.46,25.27-15.64-11.98-12-29.84-19.63-46.77-20.31-4,.21-9.88.84-10.63,5.03.63,4.34,5.57,7.08,9.34,9.39,6.01,3.35,12.67,5.8,19.39,7.94,12.93,4.35,27.37,7.02,40.82,3.68,40.27-9.71,28.98-54.9-11.01-46.14-3.18.55-7.67,1.37-10.8,1.65-14.46,1.71-33.58.27-42.39-13.32-7.95-14.79,1.79-33.24,15.53-40.45,6.84-3.73,14.74-5.05,22.26-4.49,16.25.86,45.03,15.07,49.29,31.77,1.22,5.47-3.02,8.94-8.18,7.04-12.04-5-19.62-16.66-26.97-26.78-13.74-19.15-12.6-31.58,12.38-17.31,18.61,10.96,35.54,24.69,50.21,40.54.75.86-.52,2.05-1.32,1.2-9.66-10.45-20.65-19.67-32.15-28.07-13.72-9.94-52.34-34.44-26.78,2.04,7.14,9.57,14.25,20.76,25.51,25.61,3.24,1.14,5.18-.3,4.43-3.74-4.36-15.78-31.78-26.02-46.72-27.1-6.74-.35-13.5.99-19.2,4.25-10.7,5.73-18.82,21.07-12.57,32.14,8.2,10.8,23.31,11.31,35.99,10.07,13.89-2,31.34-6.19,43.77,4.45,13.34,10.6,13.81,31.68.49,42.34-17.93,15.4-43.32,12.52-64.03,5.17-9.27-2.84-42.6-15.05-28.18-28.16,15.99-10.42,55.94,8.64,63.35,24.74,2.98,6.51-2.97,11.51-8.8,12.9-14.18,3.83-29.32,1.58-42.7-3.91-6.68-2.81-12.97-6.52-18.72-10.92-5.77-4.4-11.05-9.34-15.66-15.1-.44-.55-.35-1.35.2-1.79.59-.47,1.45-.32,1.87.3h0Z"/>
    <rect class="cls-1" x="29.88" y="85.32" width="7.09" height="90.7" rx="2.77" ry="2.77" transform="translate(-82.61 61.91) rotate(-45)"/>
    <rect class="cls-1" x="127.13" y="-11.92" width="7.09" height="90.7" rx="2.77" ry="2.77" transform="translate(14.64 102.19) rotate(-45)"/>
  </g>
</svg>