<?xml version="1.0" encoding="UTF-8"?>
<svg id="Layer_1" data-name="Layer 1" xmlns="http://www.w3.org/2000/svg" viewBox="0 0 164.1 164.1">
  <defs>
    <style>
      .cls-1 {
        fill: #684b9e;
      }

      .cls-1, .cls-2 {
        stroke-width: 0px;
      }

      .cls-2 {
        fill: #383637;
      }
    </style>
  </defs>
  <g id="isotip">
    <path id="S" class="cls-1" d="M12.13,104.37c12.74,16.58,32.32,29,53.44,30.95,9.55,1.3,38.02-.44,25.21-15.54-11.97-11.96-29.82-19.57-46.71-20.24-3.96.22-9.73.84-10.49,4.93.63,4.26,5.52,6.99,9.25,9.28,6,3.34,12.65,5.79,19.36,7.93,12.9,4.34,27.33,7,40.75,3.65,40.06-9.69,28.83-54.55-10.95-45.83-3.19.55-7.67,1.37-10.81,1.65-14.5,1.72-33.72.26-42.54-13.4-7.99-14.87,1.79-33.41,15.6-40.65,6.87-3.74,14.8-5.06,22.33-4.49,16.21.81,45.16,15.22,49.34,31.88,1.23,5.52-3.07,9.05-8.27,7.12-12.06-5.01-19.65-16.67-27.01-26.8-13.79-19.2-12.56-31.71,12.46-17.4,18.61,10.97,35.54,24.7,50.21,40.56.79.9-.55,2.15-1.39,1.26-9.66-10.44-20.65-19.66-32.15-28.05-13.66-9.81-52.26-34.53-26.69,1.96,7.13,9.55,14.23,20.73,25.47,25.58,3.22,1.11,5.06-.25,4.34-3.65-4.36-15.75-31.75-25.9-46.65-26.98-6.72-.35-13.44.99-19.12,4.25-10.62,5.68-18.7,20.96-12.5,31.93,8.19,10.72,23.19,11.22,35.82,9.99,13.9-2.01,31.43-6.19,43.88,4.49,13.41,10.66,13.88,31.86.49,42.57-17.97,15.43-43.41,12.53-64.16,5.17-9.43-2.95-42.74-15-28.21-28.38,16.05-10.44,56.04,8.66,63.47,24.82,2.96,6.63-2.92,11.52-8.84,12.98-14.2,3.83-29.34,1.57-42.72-3.92-6.69-2.81-12.97-6.53-18.73-10.92-5.77-4.4-11.05-9.33-15.67-15.1-.46-.58-.37-1.42.21-1.88.62-.5,1.53-.34,1.96.31h0Z"/>
    <rect class="cls-2" x="29.93" y="85.33" width="7.09" height="90.69" rx="2.77" ry="2.77" transform="translate(-82.6 61.94) rotate(-45)"/>
    <rect class="cls-2" x="127.14" y="-11.87" width="7.09" height="90.69" rx="2.77" ry="2.77" transform="translate(14.61 102.21) rotate(-45)"/>
  </g>
</svg>