<?xml version="1.0" encoding="UTF-8"?>
<svg id="Layer_1" data-name="Layer 1" xmlns="http://www.w3.org/2000/svg" viewBox="0 0 595.07 164.1">
  <defs>
    <style>
      .cls-1 {
        fill: #f1f1f2;
        stroke-width: 0px;
      }
    </style>
  </defs>
  <path id="S" class="cls-1" d="M12.08,103.17c12.67,16.29,31.79,28.58,52.67,30.68,13.17,1.77,41.67-2.07,22.2-18.97-11.76-9.62-27.5-16.21-42.53-16.75-13.52.46-14.9,7-2.6,13.88,17.59,8.79,39.23,16.1,59.17,12.12,20.08-3.5,36.03-23.43,18.98-40.53-9.36-8.74-23.5-6.4-35.13-4.17-8.29,1.15-16.41,1.72-24.82.14-11.32-2.06-22.6-9.14-26.8-20.32-6.27-16.24.17-37.4,15.59-45.95,10.23-5.55,22.27-5.43,33.24-3.34,17.09,2.74,31.92,10.78,44.77,22.56,8.47,7.48,16.55,15.29,24.15,23.55,2.31,3.31,8.74,4.78,11.41,1.58,2.17-2.73,2.14-9.07-1.94-10.71-4.07-1.95-7.92.56-8.29,5.15-.98,10.53,7.26,20.74,7.7,31.54,1.27,11.29.48,22.71-.46,33.86-.2,2.6-.36,5.33.33,7.01,2.78,6.61,30.42-4.34,36.68-5.8,15.56-5.33,31.29-11.84,43.3-23.29,22.23-20.5,7.76-56.27-23.76-45.02-19.81,7.55-29.37,31.22-26.77,51.33,1.24,9.65,6.22,20.28,16.44,22.18,9.41,1.79,21.13-2.09,28.76-7.77,8.16-6.1,10.88-16.91,12.63-27.54.54-1.79.98-3.49,2.56-4.84,15.15-7.3.14,42.47-3.72,47.33-5.49,11.41-18.02,24.16-31.89,18.09-6.29-2.97-6.81-10.52-.58-13.98,23.73-11.9,74.31-9.3,89.7-31.11,3.34-5.64,3.21-13.98-2.05-18.04-5.27-4.1-13.44-2.48-18.12,2.14-7.48,7.13-9.69,20.69-5.37,30.25,3.06,6.93,10.29,8.37,17.02,5.65,7.99-2.44,8.35-10.66,9.68-17.87.14-.39.13-.64.67-1.47-.25-.19,2.08-2.14,3.98-.77,1.05.87.93,1.14,1.14,1.45,1.27,3.97.78,7.77.63,11.75-1,15.48-10.15,38.67-28.69,38.42-5.49-.16-11.85-5.75-8.71-11.67,4.92-8.16,15.29-8.82,23.41-10.71,0,0,11.81-2.33,11.81-2.33,17.31-4.06,41.86-10.61,51.1-26.95,4.88-9.83-1.53-22.27-13.2-20.37-14.63,2.7-19.39,23.49-13.96,35.39,3.17,6.98,10.68,7.88,17.37,5.3,4.96-1.38,7.6-6.76,8.34-11.61.44-2.32.56-4.69,1.79-7.3.4.19-.15-2.14,4.24-1.29,1.87,1.46,1.3,1.71,1.6,2.05.1.32.13.51.17.71.97,6.6-.87,14.99,3.7,20.3,2.36,2.06,5.66-.73,7.07-4.13,4.41-10.5,2.86-23.91,3.52-35.18.18-2.85-.07-5.76.87-8.6-.62.07,1.74-2.04,3.12-.59.74.9.48.81.76,1.53,2.72,15.94.17,33.15,1.56,48.6.34-.81-3.17-.4-2.36.04-.06.14,0,.03,0-.02,3.07-16.06-3.66-36.53,10.32-49.12,15.15-8.87,23.01,13.77,23.95,25.14.64,8.23,1.48,18.04-4.61,24.63-.92.81-2.36,1.53-3.89,1.26-1.51-.31-2.51-1.34-3.12-2.31-5.47-12.68-1.3-46.82,15-50.58,21.55-3.56,25.51,38.39,16.98,50.92-.75.93-1.8,1.9-3.36,2.2-1.6.3-3.11-.56-3.93-1.49-6.96-10.05.67-26.47,13-27.26,12.59-2.42,23.14,7.01,35.02,7.68,7.32.51,13.24-6.1,13.04-12.77.3-6.58-3.73-13.5-10.83-13.7-15.71-.79-23.17,18.72-18.66,31.69,3.03,10.16,12.07,12.22,21.59,10.27,5.78-.53,12.38-1.19,18.25-1.31,8.5-.29,16.29,3.42,24,3.47,7.76.18,13.89-4.79,15.87-11.26,2.17-6.48-1.25-13.74-8.45-14.44-8.16-.65-16.96,3.26-24.69-2.25-15.93-12.75-1.86-38.18,14.8-42.48,13.98-4.56,40.03,3.62,45.12,17.6,1.38,7.81-7.05,7.18-11.61,4.52-13.05-7.37-31.95-27.41-33.68-42.81-.86-8.18,6.56-11.64,13.65-10.11,20.07,4.6,35.72,19.65,50.16,33.32.29.29.3.76.01,1.06-.29.3-.78.3-1.07,0-14.11-13.44-29.77-28.34-49.39-32.39-17.33-2.2-10.02,15.65-3.81,23.68,6.96,9.3,15.45,18.4,25.77,23.86,2.09.83,4.43,2.03,6.09,1.03.41-1.75-1.22-3.85-2.67-5.39-9.34-8.69-24.88-12.89-36.92-9.13-10.19,3.18-18.56,13.67-17.75,24.52.43,7.48,6.99,11.54,14.19,10.53,3.84-.44,8.4-1.85,12.59-1.11,23.9,4.34,14.46,39.03-8.43,34.44-8.06-1.14-15.52-4.76-23.64-3.83-16.73,1.41-37.06,11.8-45.09-10.05-5.97-16.71,4.31-40.15,24.06-39.25,15.93.26,22.22,22.49,10.1,32.08-11.02,10-25.37-1-35.69-4.71-14.54-4.32-28.68,5.06-24.33,20.56,3.39,7.52,6.34-2.94,6.19-6.5.16-10.89-.63-23.82-7.46-32.68-8.65-10.4-19.7,2.92-21.97,12.11-2.31,7.47-3.24,15.77-2.32,23.51.4,1.86.75,3.92,2.04,5.16,4.3,4.42,6.11-6.97,6.02-10.1-.25-41.78-26.43-47.29-26.73-1.37-.32,4.83.23,9.84-1.06,14.64.73.72-3.13,1.22-2.9.1-.7-1.6-.73-2.87-.92-4.41-1.43-14.98.21-30.12-1.53-44.96,0,0-.05-.21-.05-.21.03,0-.12-.11.27.35,1.18,1.19,3.27-.63,2.57-.34-1.12,5.91-.98,12.88-1.01,19.16.16,9.33.04,28.5-11.63,30.95-3.91.07-6.94-3.29-8.65-6.27-2.82-4.73-2.56-10.4-2.77-15.61.03-.43-.13-1.08-.11-1.18.22.11-.43.1,1.24,1.41,4.12.74,3.4-1.27,3.68-.9.07-.13.05-.1.04-.07-1.45,5.9-2.29,13.09-7.28,17.5-8.67,7.78-25.18,7.42-30.25-4.4-9.97-20.14,7.19-54.88,31.61-40.65,8.19,5.49,9.07,17.5,3.67,25.02-2.44,3.65-5.56,6.52-8.83,9.05-16.96,11.85-36.86,17.07-56.19,23.11-6.7,2.19-15.3,2.59-19.61,8.38-.45.98-.33,1.5.48,2.38,3.72,3.02,9.33,1.53,13.04-1.7,10.52-8.39,14.05-22.87,13.85-35.93.02-1.12-.14-2.68-.39-3.53.1.09-.12.12.73.83,1.67,1.18,3.74-.55,3.36-.53.25-.42.09-.18.09-.08-.92,5.87-1.82,13.47-6.8,17.91-5.45,4.56-12.47,6.37-19.68,4.63-22.4-8.22-14.84-49.92,8.24-52.55,16.76-2.71,26.53,16.49,15.29,28.86-12.43,11.95-28.89,15.19-44.57,20.03-11.23,3.36-23.57,6.56-34.92,9.54-2.65.85-8.49,2.2-10.69,3.64-2.8,1.82-2.51,3.03.18,4.61,2.69,1.36,6.39,1.23,9.58-.02,17.85-8.19,23.24-39.36,23.27-56.08,1.01,1.89,4.02,1.81,4.9.47-1.49,4.29-1.95,10.66-5.07,17.76-4.28,11.35-15.34,19.51-26.8,22.36-11.39,4.25-26.56,1.92-33.35-9.33-15.27-25.56-3.79-64.84,24.5-75.85,17.76-7.54,41.21,2,42.5,22.78,1.51,37.48-46.54,49.63-74.58,59.92-7.24,2.05-20.83,9.12-26.01.19-3.26-8.9.22-17.18-.16-26.02.37-11.01-.16-21.82-4.96-31.59-2.12-5.35-4.09-11.07-3.35-17.59,1.2-13.43,20.03-13.58,21.63-.3,1.36,13.02-12.88,17.08-20.68,7.87-20.84-23.18-49.39-45.08-81.93-43.26-9.57.58-18.87,4.81-23.47,13.42-4.66,8.45-6.3,18.91-2.84,27.62,5.27,13.96,22.64,18.4,36.63,17.03,4.38-.14,11.06-1.36,15.46-2.07,11-1.85,23.91-.92,32.57,7.29,14.65,13.54,10.5,35.66-6.39,44.95-14.47,8.77-32.75,8.54-48.44,3.96-10.16-2.93-20.52-6.19-30.04-11.76-3.6-2.25-7.4-4.86-9.56-8.84-4.67-9.25,7.22-13.94,14.64-13.19,16.29,1.25,31.62,8.7,43.95,19.15,12.59,11.24,7.42,20.1-7.8,22.23-27,3.7-53.8-10.03-70.58-30.82-.43-.54-.34-1.33.2-1.76.59-.46,1.41-.32,1.83.29h0Z"/>
  <rect class="cls-1" x="-11.17" y="126.54" width="90.39" height="7.06" rx="1" ry="1" transform="translate(101.94 14.04) rotate(45)"/>
  <rect class="cls-1" x="515.83" y="30.5" width="90.39" height="7.06" rx="1" ry="1" transform="translate(188.38 -386.74) rotate(45)"/>
</svg>